# xmcd CD database file
#
# Track frame offsets:
#	150
#	21162
#	37355
#	57225
#	72410
#	86950
#	108142
#	121620
#	138132
#	155495
#	170485
#	181515
#	201250
#	217595
#	236715
#	253307
#	272222
#	291052
#	308965
#
# Disc length: 4351 seconds
#
# Revision: 8
# Processed by: cddbd v1.5.2PL0 Copyright (c) Steve Scherf et al.
# Submitted via: CDex 1.51
#
DISCID=1410fd13
DTITLE=Various Artist - Country Nights (Disk 2)
DYEAR=1990
DGENRE=Country
TTITLE0=K. T. Oslin - Hold Me
TTITLE1=Conway Twitty - I want to know you before we make love
TTITLE2=Rodney Crowell - After all this time
TTITLE3=Lee Greenwood - I don't mind the thorns (if you're the rose)
TTITLE4=Forester Sisters - I fell in love again last night
TTITLE5=Gary morris - The wind beneath my wings
TTITLE6=Waylon Jennings - Drinkin' and dreamin'
TTITLE7=Garth Brooks - If tomorrow never comes
TTITLE8=Earl thomas Conley - What I'd say
TTITLE9=Roseanne Cash and Rodney Crowell - It's such a small world
TTITLE10=Eddy Raven - I got Mexico
TTITLE11=Kathy Mattea - Goin' Gone
TTITLE12=Alan Jackson - Here in the real world
TTITLE13=Restless Heart - I'll still be loving you
TTITLE14=Shenandoah - Two dozen roses
TTITLE15=Keith Whitley - Don't close your eyes
TTITLE16=Patty Loveless - Don't toss us away
TTITLE17=Vern Gosdin - That just about does it
TTITLE18=Eddie Rabbitt and Juice Newton - Both to each other (Friends and Lovers)
EXTD=YEAR: 1990
EXTT0=
EXTT1=
EXTT2=
EXTT3=
EXTT4=
EXTT5=
EXTT6=
EXTT7=
EXTT8=
EXTT9=
EXTT10=
EXTT11=
EXTT12=
EXTT13=
EXTT14=
EXTT15=
EXTT16=
EXTT17=
EXTT18=
PLAYORDER=
